<svg id="Layer_1" data-name="Layer 1" xmlns="http://www.w3.org/2000/svg" viewBox="0 0 64 51.54"><title>carrinho</title><path d="M19.77,47.49a4.06,4.06,0,1,0,4.05-4.05A4.05,4.05,0,0,0,19.77,47.49ZM53.9,43.44a4,4,0,1,1-4,4.05A4.05,4.05,0,0,1,53.9,43.44ZM14.41,1.05l9.64,33.24a1.46,1.46,0,0,0,1.4,1.05H51.51a1.48,1.48,0,0,0,1.37-.94l5.58-14.63a1.46,1.46,0,0,1,1.36-.94h2.72a1.46,1.46,0,0,1,1.36,2l-7.43,19a1.46,1.46,0,0,1-1.36.93H21.44A1.46,1.46,0,0,1,20,39.69L10.3,6.45a1.46,1.46,0,0,0-1.4-1H2.38A1.45,1.45,0,0,1,1,4.45L.09,2A1.46,1.46,0,0,1,1.46,0H13A1.46,1.46,0,0,1,14.41,1.05Z"></path></svg>
